<mxfile host="app.diagrams.net" agent="Mozilla/5.0 (Windows NT 10.0; Win64; x64) AppleWebKit/537.36 (KHTML, like Gecko) Chrome/131.0.0.0 Safari/537.36" version="25.0.3">
  <diagram name="Page-1" id="_GPp_YouvywXQ5ygZF7E">
    <mxGraphModel dx="1194" dy="459" grid="0" gridSize="10" guides="1" tooltips="1" connect="1" arrows="1" fold="1" page="0" pageScale="1" pageWidth="827" pageHeight="1169" math="0" shadow="0">
      <root>
        <mxCell id="0" />
        <mxCell id="1" parent="0" />
        <mxCell id="mPt9Spz3SZ2znL4JzJRZ-2" value="User" style="rounded=1;arcSize=10;whiteSpace=wrap;html=1;align=center;" parent="1" vertex="1">
          <mxGeometry x="207" y="189" width="100" height="40" as="geometry" />
        </mxCell>
        <mxCell id="mPt9Spz3SZ2znL4JzJRZ-4" value="" style="edgeStyle=none;curved=1;rounded=0;orthogonalLoop=1;jettySize=auto;html=1;fontSize=12;startSize=8;endSize=8;endArrow=none;endFill=0;" parent="1" target="mPt9Spz3SZ2znL4JzJRZ-2" edge="1">
          <mxGeometry relative="1" as="geometry">
            <mxPoint x="45.60664913294386" y="111.16209184681895" as="sourcePoint" />
          </mxGeometry>
        </mxCell>
        <mxCell id="mPt9Spz3SZ2znL4JzJRZ-5" value="Password&amp;nbsp;" style="ellipse;whiteSpace=wrap;html=1;align=center;" parent="1" vertex="1">
          <mxGeometry x="68" y="47" width="100" height="40" as="geometry" />
        </mxCell>
        <mxCell id="mPt9Spz3SZ2znL4JzJRZ-6" value="EMAIL" style="ellipse;whiteSpace=wrap;html=1;align=center;" parent="1" vertex="1">
          <mxGeometry x="-8" y="293" width="100" height="40" as="geometry" />
        </mxCell>
        <mxCell id="mPt9Spz3SZ2znL4JzJRZ-10" style="edgeStyle=none;curved=1;rounded=0;orthogonalLoop=1;jettySize=auto;html=1;exitX=1;exitY=0.5;exitDx=0;exitDy=0;fontSize=12;startSize=8;endSize=8;endArrow=none;endFill=0;" parent="1" source="mPt9Spz3SZ2znL4JzJRZ-7" target="mPt9Spz3SZ2znL4JzJRZ-2" edge="1">
          <mxGeometry relative="1" as="geometry" />
        </mxCell>
        <mxCell id="mPt9Spz3SZ2znL4JzJRZ-7" value="NIC" style="ellipse;whiteSpace=wrap;html=1;align=center;" parent="1" vertex="1">
          <mxGeometry x="-53" y="233" width="100" height="40" as="geometry" />
        </mxCell>
        <mxCell id="mPt9Spz3SZ2znL4JzJRZ-11" style="edgeStyle=none;curved=1;rounded=0;orthogonalLoop=1;jettySize=auto;html=1;exitX=1;exitY=0.5;exitDx=0;exitDy=0;fontSize=12;startSize=8;endSize=8;endArrow=none;endFill=0;" parent="1" source="mPt9Spz3SZ2znL4JzJRZ-8" target="mPt9Spz3SZ2znL4JzJRZ-2" edge="1">
          <mxGeometry relative="1" as="geometry" />
        </mxCell>
        <mxCell id="mPt9Spz3SZ2znL4JzJRZ-8" value="Name" style="ellipse;whiteSpace=wrap;html=1;align=center;" parent="1" vertex="1">
          <mxGeometry x="-57" y="149" width="100" height="40" as="geometry" />
        </mxCell>
        <mxCell id="mPt9Spz3SZ2znL4JzJRZ-9" style="edgeStyle=none;curved=1;rounded=0;orthogonalLoop=1;jettySize=auto;html=1;exitX=1;exitY=0.5;exitDx=0;exitDy=0;fontSize=12;startSize=8;endSize=8;endArrow=none;endFill=0;" parent="1" source="mPt9Spz3SZ2znL4JzJRZ-6" target="mPt9Spz3SZ2znL4JzJRZ-2" edge="1">
          <mxGeometry relative="1" as="geometry" />
        </mxCell>
        <mxCell id="mPt9Spz3SZ2znL4JzJRZ-12" style="edgeStyle=none;curved=1;rounded=0;orthogonalLoop=1;jettySize=auto;html=1;exitX=1;exitY=0.5;exitDx=0;exitDy=0;fontSize=12;startSize=8;endSize=8;endArrow=none;endFill=0;" parent="1" source="mPt9Spz3SZ2znL4JzJRZ-5" target="mPt9Spz3SZ2znL4JzJRZ-2" edge="1">
          <mxGeometry relative="1" as="geometry" />
        </mxCell>
        <mxCell id="G9K5cuIR75o3BZGxSk5A-1" value="User_ID" style="ellipse;whiteSpace=wrap;html=1;align=center;fontStyle=4;" vertex="1" parent="1">
          <mxGeometry x="-53" y="87" width="100" height="40" as="geometry" />
        </mxCell>
        <mxCell id="G9K5cuIR75o3BZGxSk5A-5" style="edgeStyle=orthogonalEdgeStyle;rounded=0;orthogonalLoop=1;jettySize=auto;html=1;exitX=0;exitY=0.5;exitDx=0;exitDy=0;endArrow=none;endFill=0;" edge="1" parent="1" source="G9K5cuIR75o3BZGxSk5A-2" target="G9K5cuIR75o3BZGxSk5A-3">
          <mxGeometry relative="1" as="geometry" />
        </mxCell>
        <mxCell id="G9K5cuIR75o3BZGxSk5A-16" style="edgeStyle=orthogonalEdgeStyle;rounded=0;orthogonalLoop=1;jettySize=auto;html=1;exitX=0.5;exitY=1;exitDx=0;exitDy=0;endArrow=none;endFill=0;" edge="1" parent="1" source="G9K5cuIR75o3BZGxSk5A-2">
          <mxGeometry relative="1" as="geometry">
            <mxPoint x="830" y="433" as="targetPoint" />
          </mxGeometry>
        </mxCell>
        <mxCell id="G9K5cuIR75o3BZGxSk5A-2" value="Admin" style="rounded=1;arcSize=10;whiteSpace=wrap;html=1;align=center;" vertex="1" parent="1">
          <mxGeometry x="780" y="189" width="100" height="40" as="geometry" />
        </mxCell>
        <mxCell id="G9K5cuIR75o3BZGxSk5A-3" value="manages" style="shape=rhombus;perimeter=rhombusPerimeter;whiteSpace=wrap;html=1;align=center;" vertex="1" parent="1">
          <mxGeometry x="470" y="179" width="120" height="60" as="geometry" />
        </mxCell>
        <mxCell id="G9K5cuIR75o3BZGxSk5A-4" style="edgeStyle=orthogonalEdgeStyle;rounded=0;orthogonalLoop=1;jettySize=auto;html=1;exitX=1;exitY=0.5;exitDx=0;exitDy=0;entryX=0.061;entryY=0.511;entryDx=0;entryDy=0;entryPerimeter=0;endArrow=none;endFill=0;" edge="1" parent="1" source="mPt9Spz3SZ2znL4JzJRZ-2" target="G9K5cuIR75o3BZGxSk5A-3">
          <mxGeometry relative="1" as="geometry" />
        </mxCell>
        <mxCell id="G9K5cuIR75o3BZGxSk5A-8" style="edgeStyle=orthogonalEdgeStyle;rounded=0;orthogonalLoop=1;jettySize=auto;html=1;exitX=0.5;exitY=1;exitDx=0;exitDy=0;entryX=0.5;entryY=0;entryDx=0;entryDy=0;endArrow=none;endFill=0;" edge="1" parent="1" source="G9K5cuIR75o3BZGxSk5A-7" target="G9K5cuIR75o3BZGxSk5A-2">
          <mxGeometry relative="1" as="geometry" />
        </mxCell>
        <mxCell id="G9K5cuIR75o3BZGxSk5A-7" value="Admin_ID" style="ellipse;whiteSpace=wrap;html=1;align=center;fontStyle=4;" vertex="1" parent="1">
          <mxGeometry x="814" y="39" width="100" height="40" as="geometry" />
        </mxCell>
        <mxCell id="G9K5cuIR75o3BZGxSk5A-12" style="edgeStyle=orthogonalEdgeStyle;rounded=0;orthogonalLoop=1;jettySize=auto;html=1;exitX=0;exitY=0.5;exitDx=0;exitDy=0;entryX=1;entryY=0;entryDx=0;entryDy=0;endArrow=none;endFill=0;" edge="1" parent="1" source="G9K5cuIR75o3BZGxSk5A-9" target="G9K5cuIR75o3BZGxSk5A-2">
          <mxGeometry relative="1" as="geometry" />
        </mxCell>
        <mxCell id="G9K5cuIR75o3BZGxSk5A-9" value="Name" style="ellipse;whiteSpace=wrap;html=1;align=center;" vertex="1" parent="1">
          <mxGeometry x="946" y="79" width="100" height="40" as="geometry" />
        </mxCell>
        <mxCell id="G9K5cuIR75o3BZGxSk5A-11" style="edgeStyle=orthogonalEdgeStyle;rounded=0;orthogonalLoop=1;jettySize=auto;html=1;exitX=0;exitY=0.5;exitDx=0;exitDy=0;entryX=1;entryY=0.5;entryDx=0;entryDy=0;endArrow=none;endFill=0;" edge="1" parent="1" source="G9K5cuIR75o3BZGxSk5A-10" target="G9K5cuIR75o3BZGxSk5A-2">
          <mxGeometry relative="1" as="geometry" />
        </mxCell>
        <mxCell id="G9K5cuIR75o3BZGxSk5A-10" value="Pssword" style="ellipse;whiteSpace=wrap;html=1;align=center;" vertex="1" parent="1">
          <mxGeometry x="954" y="209" width="100" height="40" as="geometry" />
        </mxCell>
        <mxCell id="G9K5cuIR75o3BZGxSk5A-13" value="N" style="text;html=1;align=center;verticalAlign=middle;resizable=0;points=[];autosize=1;strokeColor=none;fillColor=none;" vertex="1" parent="1">
          <mxGeometry x="346" y="186" width="27" height="26" as="geometry" />
        </mxCell>
        <mxCell id="G9K5cuIR75o3BZGxSk5A-14" value="1" style="text;html=1;align=center;verticalAlign=middle;resizable=0;points=[];autosize=1;strokeColor=none;fillColor=none;" vertex="1" parent="1">
          <mxGeometry x="677" y="185" width="25" height="26" as="geometry" />
        </mxCell>
        <mxCell id="G9K5cuIR75o3BZGxSk5A-15" value="Manages" style="shape=rhombus;perimeter=rhombusPerimeter;whiteSpace=wrap;html=1;align=center;" vertex="1" parent="1">
          <mxGeometry x="770" y="434" width="120" height="60" as="geometry" />
        </mxCell>
        <mxCell id="G9K5cuIR75o3BZGxSk5A-17" value="Agent" style="rounded=1;arcSize=10;whiteSpace=wrap;html=1;align=center;" vertex="1" parent="1">
          <mxGeometry x="743" y="709" width="100" height="40" as="geometry" />
        </mxCell>
        <mxCell id="G9K5cuIR75o3BZGxSk5A-22" style="edgeStyle=orthogonalEdgeStyle;rounded=0;orthogonalLoop=1;jettySize=auto;html=1;exitX=0;exitY=0.5;exitDx=0;exitDy=0;" edge="1" parent="1" source="G9K5cuIR75o3BZGxSk5A-18" target="G9K5cuIR75o3BZGxSk5A-17">
          <mxGeometry relative="1" as="geometry">
            <Array as="points">
              <mxPoint x="867" y="571" />
              <mxPoint x="867" y="729" />
            </Array>
          </mxGeometry>
        </mxCell>
        <mxCell id="G9K5cuIR75o3BZGxSk5A-18" value="Hotel_ID" style="ellipse;whiteSpace=wrap;html=1;align=center;fontStyle=4;" vertex="1" parent="1">
          <mxGeometry x="932" y="551" width="100" height="40" as="geometry" />
        </mxCell>
        <mxCell id="G9K5cuIR75o3BZGxSk5A-19" value="Attribute" style="ellipse;whiteSpace=wrap;html=1;align=center;" vertex="1" parent="1">
          <mxGeometry x="1022" y="840" width="100" height="40" as="geometry" />
        </mxCell>
        <mxCell id="G9K5cuIR75o3BZGxSk5A-20" value="Attribute" style="ellipse;whiteSpace=wrap;html=1;align=center;" vertex="1" parent="1">
          <mxGeometry x="1019" y="702" width="100" height="40" as="geometry" />
        </mxCell>
        <mxCell id="G9K5cuIR75o3BZGxSk5A-21" value="Attribute" style="ellipse;whiteSpace=wrap;html=1;align=center;" vertex="1" parent="1">
          <mxGeometry x="981" y="627" width="100" height="40" as="geometry" />
        </mxCell>
      </root>
    </mxGraphModel>
  </diagram>
</mxfile>
